# File created by Blade
# Date/Time:  Tue Sep 30 19:07:19 2014
#---------------------------------------------------------
:version 1.10
:name HOM
:units
  mass 1.0
  length 1.000000
  angle deg
:documentation
     Acclaim Skeleton File
:root
   axis xyz
   order TX TY TZ RX RY RZ
   position 0.000000 0.000000 0.000000
   orientation 0 0 0
:bonedata
   begin
      id 1
      name Spine_dum
      direction 0.000000 1.000000 0.000000
      length 7.508948
      axis 0.0 0.0 0.0 xyz
   end
   begin
      id 2
      name LeftUpLeg_dum
      direction 1.000000 0.000000 0.000000
      length 3.000560
      axis 0.0 0.0 0.0 xyz
   end
   begin
      id 3
      name RightUpLeg_dum
      direction -1.000000 0.000000 0.000000
      length 3.000560
      axis 0.0 0.0 0.0 xyz
   end
   begin
      id 4
      name Spine
      direction 0.000000 1.000000 0.000000
      length 0.000000
      axis 0.0 0.0 0.0 xyz
      dof rx ry rz
   end
   begin
      id 5
      name Spine_dum1
      direction 0.000000 1.000000 0.000000
      length 13.861154
      axis 0.0 0.0 0.0 xyz
   end
   begin
      id 6
      name Spine_dum2
      direction 0.000000 1.000000 0.000000
      length 8.204781
      axis 0.0 0.0 0.0 xyz
   end
   begin
      id 7
      name Spine_dum3
      direction 0.000000 1.000000 0.000000
      length 8.204781
      axis 0.0 0.0 0.0 xyz
   end
   begin
      id 8
      name Head
      direction 0.000000 1.000000 0.000000
      length 4.527550
      axis 0.0 0.0 0.0 xyz
      dof rx ry rz
   end
   begin
      id 9
      name LeftShoulder
      direction 1.000000 0.000000 0.000000
      length 6.635956
      axis 0.0 0.0 -90.0 xyz
      dof rx ry rz
   end
   begin
      id 10
      name LeftArm
      direction 1.000000 0.000000 0.000000
      length 10.274218
      axis 0.0 0.0 -90.0 xyz
      dof rx ry rz
   end
   begin
      id 11
      name LeftForeArm
      direction 1.000000 0.000000 0.000000
      length 8.522147
      axis 0.0 0.0 -90.0 xyz
      dof ry rz rx
   end
   begin
      id 12
      name LeftHand
      direction 0.000000 0.000000 0.000000
      length 0.000000
      axis 0.0 0.0 -90.0 xyz
      dof rx ry rz
   end
   begin
      id 13
      name LeftHand_dum1
      direction 0.000000 0.000000 0.000000
      length 0.000000
      axis 0.0 0.0 -90.0 xyz
   end
   begin
      id 14
      name LeftHand_dum2
      direction 1.000000 0.000000 0.000000
      length 3.937000
      axis 0.0 0.0 -90.0 xyz
   end
   begin
      id 15
      name LeftHandThumb1
      direction 0.000000 0.000000 1.000000
      length 3.937000
      axis 0.0 0.0 -90.0 xyz
      dof rx rz ry
   end
   begin
      id 16
      name RightShoulder
      direction -1.000000 0.000000 0.000000
      length 6.635956
      axis 0.0 0.0 90.0 xyz
      dof rx ry rz
   end
   begin
      id 17
      name RightArm
      direction -1.000000 0.000000 0.000000
      length 10.274218
      axis 0.0 0.0 90.0 xyz
      dof rx ry rz
   end
   begin
      id 18
      name RightForeArm
      direction -1.000000 0.000000 0.000000
      length 8.522147
      axis 0.0 0.0 90.0 xyz
      dof ry rz rx
   end
   begin
      id 19
      name RightHand
      direction 0.000000 0.000000 0.000000
      length 0.000000
      axis 0.0 0.0 90.0 xyz
      dof rx ry rz
   end
   begin
      id 20
      name RightHand_dum1
      direction 0.000000 0.000000 0.000000
      length 0.000000
      axis 0.0 0.0 90.0 xyz
   end
   begin
      id 21
      name RightHand_dum2
      direction -1.000000 0.000000 0.000000
      length 3.937000
      axis 0.0 0.0 90.0 xyz
   end
   begin
      id 22
      name RightHandThumb1
      direction 0.000000 0.000000 1.000000
      length 3.937000
      axis 0.0 0.0 90.0 xyz
      dof rx rz ry
   end
   begin
      id 23
      name LeftUpLeg
      direction 0.000000 -1.000000 0.000000
      length 16.490845
      axis 0.0 0.0 0.0 xyz
      dof rx ry rz
   end
   begin
      id 24
      name LeftLeg
      direction 0.000000 -1.000000 0.000000
      length 14.556576
      axis 0.0 0.0 0.0 xyz
      dof rx ry rz
   end
   begin
      id 25
      name LeftFoot
      direction 0.000000 -0.258819 0.965926
      length 4.831116
      axis 15.0 0.0 0.0 xyz
      dof rx ry rz
   end
   begin
      id 26
      name LeftToeBase
      direction 0.000000 0.000000 1.000000
      length 2.952750
      axis 0.0 0.0 0.0 xyz
      dof rx ry rz
   end
   begin
      id 27
      name RightUpLeg
      direction 0.000000 -1.000000 0.000000
      length 16.490845
      axis 0.0 0.0 0.0 xyz
      dof rx ry rz
   end
   begin
      id 28
      name RightLeg
      direction 0.000000 -1.000000 0.000000
      length 14.556576
      axis 0.0 0.0 0.0 xyz
      dof rx ry rz
   end
   begin
      id 29
      name RightFoot
      direction 0.000000 -0.258819 0.965926
      length 4.831116
      axis 15.0 0.0 0.0 xyz
      dof rx ry rz
   end
   begin
      id 30
      name RightToeBase
      direction 0.000000 0.000000 1.000000
      length 2.952750
      axis 0.0 0.0 0.0 xyz
      dof rx ry rz
   end
:hierarchy
   begin
      root Spine_dum LeftUpLeg_dum RightUpLeg_dum
      Spine_dum Spine
      LeftUpLeg_dum LeftUpLeg
      RightUpLeg_dum RightUpLeg
      Spine Spine_dum1 Spine_dum2 Spine_dum3
      Spine_dum1 Head
      Spine_dum2 LeftShoulder
      Spine_dum3 RightShoulder
      LeftShoulder LeftArm
      LeftArm LeftForeArm
      LeftForeArm LeftHand
      LeftHand LeftHand_dum1 LeftHand_dum2
      LeftHand_dum1 LeftHandThumb1
      RightShoulder RightArm
      RightArm RightForeArm
      RightForeArm RightHand
      RightHand RightHand_dum1 RightHand_dum2
      RightHand_dum1 RightHandThumb1
      LeftUpLeg LeftLeg
      LeftLeg LeftFoot
      LeftFoot LeftToeBase
      RightUpLeg RightLeg
      RightLeg RightFoot
      RightFoot RightToeBase
   end

# File created by Blade
# Date/Time:  Thu Sep 25 19:32:06 2014
# Frame Rate: 120.000 fps
#------------------------------------------------------
:FULLY-SPECIFIED
:DEGREES
1
root 0.446659 33.078034 -7.578678 8.686908 3.919673 -1.600750
Spine -9.323370 3.590581 2.870740
Head -8.137307 -8.798901 7.157808
LeftShoulder -12.164642 15.273660 25.981568
LeftArm 20.633524 -23.119275 -28.971525
LeftForeArm 9.495299 -0.000000 14.859470
LeftHand -25.000779 0.000000 -7.671221
LeftHandThumb1 -26.253704 0.000000 33.147579
RightShoulder -19.587139 15.509672 -39.506444
RightArm -5.582441 7.214754 30.232707
RightForeArm -28.050705 0.000000 15.475151
RightHand -9.930618 -0.000000 10.955884
RightHandThumb1 -24.326973 -0.000000 -32.862282
LeftUpLeg -2.487713 5.369562 4.102745
LeftLeg -1.019507 -0.000000 0.000000
LeftFoot -10.514725 4.118429 -16.225505
LeftToeBase 7.730892 -0.000000 -0.000000
RightUpLeg -3.085300 -7.198330 0.931717
RightLeg 0.650740 -0.000000 -0.000000
RightFoot -7.707509 -5.319052 0.985657
RightToeBase -1.106836 -0.000000 0.000000
2
root 0.443062 33.078567 -7.576429 8.692331 3.896195 -1.602246
Spine -9.310716 3.614298 2.894847
Head -8.149063 -8.818647 7.129274
LeftShoulder -12.157944 15.256471 25.966873
LeftArm 20.619093 -23.137255 -29.016958
LeftForeArm 9.555641 -0.000000 14.850867
LeftHand -24.949617 -0.000000 -7.688797
LeftHandThumb1 -26.253704 0.000000 33.147579
RightShoulder -19.589879 15.487673 -39.509906
RightArm -5.557203 7.228272 30.235674
RightForeArm -28.038660 -0.000000 15.474984
RightHand -9.941626 -0.000000 10.974614
RightHandThumb1 -24.326973 -0.000000 -32.862282
LeftUpLeg -2.486800 5.442445 4.115016
LeftLeg -1.020275 -0.000000 0.000000
LeftFoot -10.479222 4.021753 -16.357680
LeftToeBase 7.729037 -0.000000 -0.000000
RightUpLeg -3.113771 -7.178652 0.938051
RightLeg 0.700197 -0.000000 -0.000000
RightFoot -7.727815 -5.320060 0.981729
RightToeBase -1.128100 -0.000000 0.000000
3
root 0.439235 33.078947 -7.573420 8.696057 3.870783 -1.595104
Spine -9.301705 3.629792 2.902686
Head -8.152082 -8.825254 7.105189
LeftShoulder -12.175876 15.306655 25.923550
LeftArm 20.656163 -23.165521 -29.034202
LeftForeArm 9.566998 -0.000000 14.830526
LeftHand -24.913032 -0.000000 -7.740976
LeftHandThumb1 -26.253704 0.000000 33.147579
RightShoulder -19.581320 15.481345 -39.507607
RightArm -5.535185 7.218771 30.239601
RightForeArm -27.979761 -0.000000 15.454316
RightHand -9.945646 -0.000000 10.926149
RightHandThumb1 -24.326973 -0.000000 -32.862282
LeftUpLeg -2.482531 5.506509 4.116626
LeftLeg -1.017256 -0.000000 0.000000
LeftFoot -10.461225 3.979444 -16.379272
LeftToeBase 7.741863 -0.000000 -0.000000
RightUpLeg -3.132995 -7.128468 0.934096
RightLeg 0.741054 -0.000000 -0.000000
RightFoot -7.750088 -5.352162 0.973971
RightToeBase -1.095480 -0.000000 0.000000
4
root 0.433928 33.079553 -7.571457 8.702059 3.840632 -1.597094
Spine -9.291440 3.649359 2.923634
Head -8.160262 -8.820358 7.074064
LeftShoulder -12.200819 15.375160 25.886570
LeftArm 20.718562 -23.222246 -29.093952
LeftForeArm 9.489679 -0.000000 14.802834
LeftHand -24.915498 -0.000000 -7.705875
LeftHandThumb1 -26.253704 0.000000 33.147579
RightShoulder -19.576575 15.492787 -39.506781
RightArm -5.508428 7.198082 30.229463
RightForeArm -27.936105 0.000000 15.421089
RightHand -9.909103 -0.000000 10.950146
RightHandThumb1 -24.326973 -0.000000 -32.862282
LeftUpLeg -2.483900 5.572262 4.131559
LeftLeg -1.011089 -0.000000 0.000000
LeftFoot -10.435507 3.907405 -16.488684
LeftToeBase 7.757688 -0.000000 -0.000000
RightUpLeg -3.163672 -7.090265 0.942061
RightLeg 0.791478 -0.000000 -0.000000
RightFoot -7.771144 -5.361133 0.973361
RightToeBase -1.097814 -0.000000 0.000000
5
root 0.427331 33.080666 -7.569330 8.708650 3.808022 -1.611427
Spine -9.283702 3.668243 2.952255
Head -8.170963 -8.830352 7.052147
LeftShoulder -12.210385 15.359229 25.863016
LeftArm 20.702056 -23.205571 -29.109623
LeftForeArm 9.559091 -0.000000 14.791915
LeftHand -24.922332 -0.000000 -7.746894
LeftHandThumb1 -26.253704 0.000000 33.147579
RightShoulder -19.562752 15.520358 -39.494095
RightArm -5.499454 7.204668 30.208538
RightForeArm -27.934094 -0.000000 15.410443
RightHand -9.926867 -0.000000 10.960548
RightHandThumb1 -24.326973 -0.000000 -32.862282
LeftUpLeg -2.488329 5.631658 4.159729
LeftLeg -1.000188 -0.000000 0.000000
LeftFoot -10.433033 3.845071 -16.624516
LeftToeBase 7.812183 -0.000000 -0.000000
RightUpLeg -3.209331 -7.063728 0.968809
RightLeg 0.869980 -0.000000 -0.000000
RightFoot -7.788352 -5.371406 0.931367
RightToeBase -1.143749 -0.000000 0.000000
6
root 0.421265 33.081310 -7.567218 8.710206 3.771270 -1.604482
Spine -9.263996 3.695729 2.955061
Head -8.189705 -8.845325 7.032750
LeftShoulder -12.218365 15.391735 25.842795
LeftArm 20.730966 -23.223638 -29.158552
LeftForeArm 9.616475 0.000000 14.747652
LeftHand -24.877585 -0.000000 -7.730099
LeftHandThumb1 -26.253704 0.000000 33.147579
RightShoulder -19.557489 15.549550 -39.492316
RightArm -5.507444 7.212416 30.196595
RightForeArm -27.923103 -0.000000 15.407899
RightHand -9.923120 -0.000000 10.954431
RightHandThumb1 -24.326973 -0.000000 -32.862282
LeftUpLeg -2.492510 5.711992 4.166107
LeftLeg -0.975486 -0.000000 0.000000
LeftFoot -10.414116 3.761707 -16.740545
LeftToeBase 7.779429 -0.000000 -0.000000
RightUpLeg -3.245731 -7.041613 0.970918
RightLeg 0.940943 -0.000000 -0.000000
RightFoot -7.818954 -5.376390 0.919280
RightToeBase -1.126491 -0.000000 0.000000
7
root 0.413526 33.081921 -7.564785 8.710279 3.727266 -1.605486
Spine -9.245053 3.734234 2.973707
Head -8.202166 -8.876674 6.993019
LeftShoulder -12.229407 15.415977 25.836505
LeftArm 20.743274 -23.227728 -29.249608
LeftForeArm 9.645052 0.000000 14.787933
LeftHand -24.978908 -0.000000 -7.788121
LeftHandThumb1 -26.253704 0.000000 33.147579
RightShoulder -19.554280 15.563217 -39.517691
RightArm -5.517602 7.237015 30.212310
RightForeArm -27.959596 -0.000000 15.415179
RightHand -9.941390 -0.000000 10.942489
RightHandThumb1 -24.326973 -0.000000 -32.862282
LeftUpLeg -2.490236 5.784660 4.183938
LeftLeg -0.961263 -0.000000 0.000000
LeftFoot -10.377289 3.699634 -16.824271
LeftToeBase 7.685223 -0.000000 -0.000000
RightUpLeg -3.290029 -7.013012 0.977543
RightLeg 1.036236 -0.000000 -0.000000
RightFoot -7.875614 -5.332234 0.953177
RightToeBase -1.183071 -0.000000 0.000000
8
root 0.405012 33.082793 -7.563938 8.721484 3.677054 -1.611270
Spine -9.231741 3.791885 2.995709
Head -8.228542 -8.906776 6.947859
LeftShoulder -12.205677 15.387535 25.829728
LeftArm 20.688979 -23.208261 -29.299364
LeftForeArm 9.643799 -0.000000 14.838855
LeftHand -24.880491 -0.000000 -7.802095
LeftHandThumb1 -26.253704 0.000000 33.147579
RightShoulder -19.563208 15.566404 -39.557028
RightArm -5.549211 7.280713 30.244322
RightForeArm -28.014191 -0.000000 15.476312
RightHand -10.046478 -0.000000 10.821670
RightHandThumb1 -24.326973 -0.000000 -32.862282
LeftUpLeg -2.500510 5.815490 4.207381
LeftLeg -0.942180 -0.000000 0.000000
LeftFoot -10.373828 3.670715 -16.935304
LeftToeBase 7.772399 -0.000000 -0.000000
RightUpLeg -3.357457 -7.017391 0.999211
RightLeg 1.141335 -0.000000 -0.000000
RightFoot -7.921280 -5.302162 0.924238
RightToeBase -1.108357 -0.000000 0.000000
